<svg xmlns="http://www.w3.org/2000/svg" width="256" height="256"><path fill="gold" fill-opacity=".016" fill-rule="evenodd" d="M0 128.004v128.004l128.25-.254 128.25-.254.254-127.75L257.008 0H0zm.485.496c0 70.4.119 99.053.265 63.672s.146-92.98 0-128S.485 58.1.485 128.5"/><path fill="gold" fill-opacity=".147" fill-rule="evenodd" d="M41.655 84.829c-.91 1.006-1.655 2.941-1.655 4.3s-.479 2.95-1.063 3.534c-.585.585-1.374 3.233-1.753 5.885-.638 4.457-.922 4.848-3.76 5.172-2.473.282-3.29-.129-4.194-2.116-.619-1.356-2.498-3.482-4.177-4.723S22 94.089 22 93.434c0-1.477-1.825-2.982-4.671-3.854-1.544-.473-2.773-.019-4.25 1.566-2.614 2.805-2.637 5.039-.076 7.356 1.757 1.591 2.495 1.665 6.02.609 4.596-1.377 5.437-1.047 7.978 3.13l1.838 3.024-2.951 2.482c-3.942 3.318-8.479 10.051-9.265 13.753-.384 1.81-.09 4.039.743 5.62l1.38 2.619-3.683-1.446c-2.459-.966-4.049-2.419-4.786-4.37-.734-1.944-1.802-2.923-3.19-2.923-1.148 0-2.087.419-2.087.93s-1.013 1.075-2.25 1.25C.906 123.442.5 124.132.5 127c0 3.005.36 3.542 2.544 3.797 2.242.261 2.498.685 2.16 3.585-.314 2.687.172 3.756 2.658 5.849 2.837 2.386 2.963 2.772 1.862 5.69-1.769 4.686-.132 6.579 5.69 6.579 4.02 0 4.756.317 5.241 2.256.311 1.241 2.702 4.177 5.313 6.525s5.498 5.72 6.416 7.494c1.903 3.681 3.182 3.938 6.366 1.281 2.709-2.259 2.781-2.751.5-3.43-.962-.287.05-.315 2.25-.063s4.675.01 5.5-.537c1.295-.859 1.269-.997-.194-1.011-.932-.008-2.904-1.056-4.383-2.327-2.554-2.198-2.623-2.492-1.384-5.918l1.303-3.606 5.028 1.982c6.759 2.664 6.788 2.69 5.568 4.97-1.842 3.443-.499 4.172 2.38 1.293 1.519-1.518 2.538-3.342 2.265-4.053s-.047-1.569.501-1.908c.549-.339.724-1.478.389-2.532-.34-1.071-.137-1.916.46-1.916.587 0 1.067-1.125 1.067-2.5 0-2.29.371-2.5 4.429-2.5 6.965 0 10.186-5.055 5.37-8.428l-2.202-1.542 2.555-2.765c3.37-3.647 3.941-5.539 2.7-8.942-.896-2.456-.388-4.17 3.902-13.185l4.931-10.362-2.407-2.407c-1.324-1.324-2.858-2.129-3.409-1.788s-1.547-.125-2.212-1.035c-2.146-2.936-4.663-.569-8.71 8.191l-3.913 8.469-3.094-2.603c-2.608-2.195-5.774-3.027-9.578-2.518-.351.047-.945-.411-1.321-1.018-1.088-1.762-6.845-3.107-7.407-1.731-1.009 2.468-.575-5.205.462-8.182.926-2.655 1.471-3.05 3.507-2.539 3.595.903 7.397-1.978 7.397-5.603 0-4.743-6.064-6.809-9.345-3.183m35.763 3.261c-1.856 2.052-1.855 2.117.036 3.5C80.359 93.714 81 93.336 81 89.5c0-4.017-.901-4.371-3.582-1.41m8.998 8.827c-.229.229-.416 10.016-.416 21.75V140h28v-8H95.046l-.273-17.646-.273-17.645-3.834-.105c-2.109-.057-4.022.084-4.25.313m46.084.973c-7.936 3.663-11.513 10.153-11.478 20.828.034 10.639 3.946 17.281 12.21 20.734 6.465 2.702 16.098 1.272 20.941-3.107 5.339-4.829 8.169-16.709 5.94-24.944-3.417-12.631-16.088-18.83-27.613-13.511m37.915-.973c-.228.229-.415 10.016-.415 21.75V140h10v-28.386l9.684 14.193L199.367 140h8.672l-.269-21.667-.27-21.667-4-.002-4-.001-.5 13.729-.5 13.73-9.5-13.723-9.5-13.722-4.335-.089c-2.384-.048-4.521.1-4.75.329m59.085.973c-8 3.692-11.5 10.119-11.5 21.118 0 8.244 1.988 13.018 7.399 17.769 5.693 4.999 17.72 5.399 21.605.718 1.726-2.079 2.996-1.866 2.996.505 0 1.556.667 2 3 2h3v-23.075l-9.25.287-9.25.288v3c0 2.815.263 3.019 4.25 3.307 3.221.234 4.242.718 4.218 2-.076 4.036-5.375 7.411-10.19 6.491-4.848-.927-7.176-4.644-7.599-12.137-.611-10.814 2.71-16.161 10.04-16.161 1.158 0 3.75 1.8 5.817 4.039 3.211 3.478 4.242 4.005 7.417 3.791 4.455-.3 4.873-.838 3.491-4.496-3.631-9.609-15.523-14.023-25.444-9.444m-93.844 7.243c-6.271 3.645-6.128 23.403.194 26.787 6.346 3.396 13.447-1.047 14.666-9.177 1.573-10.491-2.565-18.769-9.355-18.713-2.014.017-4.491.513-5.505 1.103m-82.528 5.617c.754.963 1.687 1.988 2.072 2.278s1.106 1.624 1.601 2.963l.901 2.435 1.14-2.131c.989-1.847.731-2.476-1.927-4.713-3.511-2.954-5.856-3.469-3.787-.832M7.299 123.336c.462 1.205.095 1.664-1.33 1.664-1.083 0-2.003.338-2.046.75s-.227 1.537-.411 2.5c-.367 1.916-.09 2.012 3.238 1.12 1.66-.445 2.25-1.344 2.25-3.428 0-1.553-.526-3.149-1.17-3.547-.787-.486-.961-.178-.531.941M8 131c-.825.533-1.05.969-.5.969s1.675-.436 2.5-.969 1.05-.969.5-.969-1.675.436-2.5.969m4 4.5c4.566 1.758 6.362 1.732 2.5-.036-1.65-.756-3.675-1.36-4.5-1.343s.075.638 2 1.379m5.869-.158c.612.738.78 1.751.372 2.25-.407.499-.332.574.167.167.499-.408 1.624-.197 2.5.469s.501-.012-.832-1.508c-2.434-2.731-4.293-3.891-2.207-1.378m46.054.908c-.638 2.086-.55 3.638.181 3.186.511-.316.693-.955.406-1.42s.043-1.073.734-1.352c.998-.402.999-.522.006-.585-.687-.043-1.284.034-1.327.171m38.601 16.861c1.416 6.444 4.02 13.254 5.22 13.645.684.224 1.71-.868 2.28-2.425 2.148-5.872 2.237-5.919 3.459-1.831 1.935 6.472 3.887 5.641 6.362-2.707 2.604-8.787 2.663-10.037.452-9.612-1.083.209-2.108 1.967-2.812 4.824l-1.109 4.495-1.438-4.5c-1.805-5.649-3.981-5.845-5.542-.5-.748 2.56-1.379 3.46-1.753 2.5a291 291 0 0 1-1.589-4.25c-.552-1.512-1.726-2.75-2.609-2.75-1.275 0-1.464.639-.921 3.111M124 158.5v8.5h5.5c4.833 0 5.5-.242 5.5-2 0-1.619-.667-2-3.5-2-2.444 0-3.5-.452-3.5-1.5q0-1.5 3-1.5t3-1.5-3-1.5-3-1.5c0-1.048 1.056-1.5 3.5-1.5 2.833 0 3.5-.381 3.5-2 0-1.758-.667-2-5.5-2H124zm13.959-8.25c-.022.137-.101 3.85-.174 8.25l-.135 8 3.482.299c5.679.487 8.868-1.23 8.868-4.774 0-1.686-.531-3.025-1.2-3.025-.933 0-.933-.267 0-1.2 3.345-3.345-.667-7.8-7.023-7.8-2.077 0-3.795.113-3.818.25m20.616 1.668c-2.938 3.246-1.678 6.391 3.175 7.927 2.338.74 4.25 1.704 4.25 2.143 0 1.709-3.374 1.983-5.107.415-2.479-2.244-5.361-1.147-3.944 1.501 2.058 3.846 10.048 3.84 12.107-.009 1.698-3.172.195-5.74-4.116-7.031-3.976-1.191-4.827-2.198-2.877-3.403.585-.361 1.858.062 2.829.941 3.535 3.2 6.488.978 3.144-2.366-2.565-2.565-7.194-2.623-9.461-.118m11.953-.963c-.941 1.522.301 3.045 2.483 3.045 1.624 0 1.936.889 2.191 6.24.239 5.006.644 6.306 2.048 6.573 1.523.29 1.75-.519 1.75-6.24 0-6.395.07-6.573 2.573-6.573 1.911 0 2.488-.45 2.24-1.75-.266-1.4-1.562-1.809-6.486-2.045-3.529-.17-6.428.15-6.799.75M185 156.5c0 5.167.41 6.91 2 8.5 2.398 2.398 5.746 2.567 8.777.443 1.938-1.357 2.223-2.456 2.223-8.573 0-6.143-.218-6.975-1.75-6.683-1.406.268-1.809 1.571-2.049 6.636-.278 5.849-.458 6.281-2.5 5.99-1.961-.279-2.233-.993-2.499-6.563-.258-5.431-.553-6.25-2.25-6.25-1.736 0-1.952.72-1.952 6.5m16 1.87c0 8.393.065 8.63 2.351 8.63 3.714 0 8.601-2.041 9.67-4.039 1.532-2.863 1.152-7.526-.81-9.949-1.221-1.508-3.287-2.379-6.5-2.741L201 149.74zm15.21-.131c.243 6.914.571 8.293 2.04 8.573 1.557.298 1.75-.613 1.75-8.239 0-7.963-.145-8.573-2.04-8.573-1.913 0-2.023.517-1.75 8.239m8.245-5.784C219.509 157.4 222.839 167 229.5 167c3.838 0 7.5-4.15 7.5-8.5s-3.662-8.5-7.5-8.5c-1.425 0-3.695 1.105-5.045 2.455m-186.642 1.228c.721.289 1.584.253 1.916-.079s-.258-.568-1.312-.525c-1.165.048-1.402.285-.604.604m52.937 1.523c-6.321 2.72-6.344 5.063-.072 7.2 5.672 1.933 5.322 1.928 5.322.069 0-.838-1.237-2.017-2.75-2.619l-2.75-1.094 2.75-.965c1.708-.598 2.75-1.69 2.75-2.88 0-1.054-.112-1.881-.25-1.836s-2.388 1.001-5 2.125M141.5 154c-.826 1.336.284 3 2 3 2.04 0 2.969-2.089 1.378-3.096-1.807-1.145-2.626-1.122-3.378.096m86.029.614c-2.899 2.899-1.584 8.386 2.011 8.386 2.638 0 3.973-2.82 3.059-6.462-.747-2.978-3.117-3.877-5.07-1.924m15.471.317c0 1.178 1.048 2.265 2.75 2.855l2.75.952-2.75 1.291c-2.58 1.212-3.853 3.971-1.833 3.971 2.502 0 10.083-4.109 10.083-5.464 0-.845-.208-1.536-.463-1.536s-2.73-.893-5.5-1.985c-4.921-1.94-5.037-1.942-5.037-.084m-38 3.642c0 3.707.311 4.512 1.643 4.25 4.067-.8 4.375-8.823.338-8.823-1.686 0-1.981.681-1.981 4.573m-163.199-1.036c-.922 2.023-.867 2.826.272 3.964 1.236 1.237 1.439 1.131 1.513-.787.048-1.218.434-3.001.857-3.964.479-1.088.344-1.75-.357-1.75-.621 0-1.649 1.142-2.285 2.537m99.532 3.963c0 .905.926 1.5 2.334 1.5s2.333-.595 2.333-1.5-.926-1.5-2.333-1.5-2.334.595-2.334 1.5"/><path fill="gold" fill-opacity=".65" fill-rule="evenodd" d="M42.223 85.007c-1.185 1.104-1.911 2.643-1.613 3.419s-.182 2.517-1.066 3.867C37.511 95.396 36.239 105 37.861 105c.676 0 1.139-1.752 1.139-4.309 0-5.91 1.877-8.238 6.334-7.854 2.693.232 3.773-.168 4.593-1.701 1.51-2.821 1.354-3.855-.927-6.136-2.522-2.522-4.064-2.521-6.777.007M78 88.015c-2.118 1.67-2.271 2.122-1 2.962 2.684 1.776 4 1.125 4-1.977 0-3.532.163-3.478-3-.985M13.2 91.2c-.66.66-1.2 2.145-1.2 3.3s.54 2.64 1.2 3.3c1.494 1.494 6.034 1.566 7.482.118 1.604-1.604 4.743.714 7.423 5.483 1.241 2.208 2.445 3.449 2.676 2.757.604-1.813-4.337-8.882-6.743-9.646C22.917 96.156 22 95.446 22 94.933 22 93.329 18.086 90 16.2 90c-.99 0-2.34.54-3 1.2m56.41 4.523c-.398.398-2.47 4.452-4.606 9.009l-3.882 8.285-2.601-2.41c-3.741-3.467-7.032-3.984-12.603-1.981-2.648.953-4.616 2.054-4.373 2.447s-.263 2.402-1.125 4.464l-1.566 3.749-2.831-3.1c-3.339-3.655-6.954-4.782-11.322-3.529-6.185 1.774-9.725 11.008-6.168 16.086l1.532 2.189-4.263-1.909c-2.345-1.05-4.436-2.425-4.646-3.056-.21-.63-.904-.093-1.542 1.194-.801 1.616-2.189 2.438-4.49 2.66-2.366.228-3.118-.021-2.599-.862.402-.65.111-1.575-.647-2.055-1.082-.686-1.096-.877-.069-.889.72-.008 1.02-.483.666-1.055-.417-.675.266-.812 1.941-.392 1.421.357 2.584.242 2.584-.256 0-1.498-5.001-.926-6.021.688-2.728 4.315 1.457 7.406 7.128 5.266 2.388-.902 3.398-.605 7.574 2.22 2.65 1.793 5.649 4.186 6.663 5.319s2.477 1.817 3.25 1.521 1.406.033 1.406.734c0 .7.266 1.008.59.683.325-.325 2.238-.034 4.25.647s6.247 1.101 9.41.933c6.029-.32 6.62.105 4.389 3.157-1.237 1.691-1.957 1.763-7.851.786-3.569-.591-8.379-1.988-10.689-3.104l-4.199-2.029-.95 2.499c-1.314 3.457-1.43 3.27 3.3 5.341 6.581 2.882 16.758 4.632 17.735 3.051.609-.986 2.094-.677 6.554 1.365 3.171 1.452 5.833 2.521 5.916 2.375s.843-1.389 1.689-2.764 1.837-3.706 2.199-5.181c.424-1.722 1.44-2.795 2.841-3 1.37-.2 2.441-1.296 2.879-2.944.594-2.236.419-2.552-1.183-2.133-1.166.305-1.874-.028-1.865-.875.024-2.128 1.653-4.19 2.767-3.502.552.342 1.276-.46 1.608-1.782.331-1.321 3.754-9.199 7.606-17.505 3.852-8.307 7.004-15.322 7.004-15.59s-.675-.488-1.5-.488-1.5-.417-1.5-.927c0-.509-1.419-1.634-3.154-2.5-3.551-1.772-4.208-1.878-5.236-.85m66.89 1.191c-5.725 1.434-9.437 4.122-12.211 8.842-2.424 4.123-2.789 5.79-2.789 12.744 0 6.956.364 8.62 2.793 12.752 3.535 6.013 8.569 8.748 16.102 8.748 12.877 0 19.538-7.238 19.583-21.282.032-9.845-3.412-16.815-9.978-20.195-3.403-1.751-9.862-2.521-13.5-1.609m97 .024c-5.68 1.378-9.429 4.085-12.211 8.818-2.43 4.134-2.787 5.773-2.772 12.744.031 13.973 5.509 20.662 17.461 21.319 5.689.313 7.001.032 10.272-2.2l3.75-2.559v2.47c0 2.078.476 2.47 3 2.47h3v-22h-9c-8.933 0-9 .019-9 2.5 0 2.305.359 2.5 4.608 2.5 4.518 0 4.596.054 3.963 2.75-1.675 7.129-10.378 9.597-15.562 4.413-5.08-5.08-5.23-17.37-.285-23.247 2.244-2.667 3.069-2.98 7.142-2.715 3.948.256 4.893.757 6.62 3.51 1.744 2.782 2.584 3.217 6.264 3.25 5.113.047 5.535-1.605 1.811-7.086s-12.26-8.587-19.061-6.937M86 118.5V140h27v-7H95V97h-9zm85 0V140h8v-14.559c0-8.007.38-14.324.845-14.037.465.288 5.217 6.839 10.559 14.559 9.71 14.032 9.715 14.037 13.655 14.037H208V97h-8.945l-.278 13.984-.277 13.984-9.5-13.954-9.5-13.954-4.25-.03L171 97zm-33.5-14.592c-7.529 3.224-9.888 18.912-3.911 26.015 4.392 5.22 12.704 4.279 15.845-1.795 3.068-5.933 1.519-19.436-2.624-22.872-2.041-1.692-6.873-2.392-9.31-1.348m-90.509 5.851c-4.189 2.09-6.382 6.186-5.489 10.25.846 3.853 5.831 7.991 9.627 7.991 2.685 0 3.274-.638 6.025-6.515 3.278-7.005 3.227-8.565-.35-10.823-3.956-2.496-6.207-2.704-9.813-.903m-21.707 3.942c-3.162.612-7.284 5.909-7.284 9.36 0 1.795 1.109 4.148 2.898 6.15C26.855 135.879 37 132.008 37 123.067c0-4.497-2.551-8.418-5.052-7.764-1.001.262-2.059-.149-2.352-.914-.293-.764-.885-1.328-1.315-1.253s-1.778.329-2.997.565m17.493 2.996c-.873 1.723-.204 3.803 1.223 3.803 1.753 0 2.048-3.651.342-4.219-.637-.213-1.342-.025-1.565.416m-9.851 1.584c-.041.121-.268 1.265-.505 2.543-.332 1.79-.03 2.247 1.312 1.989 2.251-.434 2.83-3.383.816-4.156-.852-.327-1.582-.496-1.623-.376m5.539 4.469c-.019 1.513-.406 3.825-.861 5.138-.752 2.174-.596 2.344 1.755 1.894 1.427-.272 2.328-.084 2.015.422-.311.503-1.535.801-2.72.662-1.184-.138-3.594.51-5.354 1.441-3.662 1.937-7.457 2.165-10.616.637-2.071-1.002-2.063-.951.161.986 5.052 4.403 15.303 4.995 24.283 1.402 3.385-1.354 5.872-3.797 5.872-5.766 0-.311-1.289-.566-2.865-.566-3.371 0-7.91-3.277-9.185-6.631-1.211-3.185-2.442-2.996-2.485.381m-32.382-1.467c.23.156 1.317.943 2.417 1.75 1.85 1.357 1.897 1.336.628-.283-.755-.963-1.843-1.75-2.417-1.75s-.857.127-.628.283m220.723 29.935c-4.746 1.606-5.817 8.587-1.999 13.032 1.88 2.189 7.506 2.294 9.62.18 5.897-5.897.159-15.845-7.621-13.212m-122.429 7.258c2.29 8.172 4.208 9.487 5.869 4.024.502-1.65 1.15-3.675 1.439-4.5.309-.879 1.117.467 1.951 3.25.784 2.613 2.027 4.75 2.762 4.75.787 0 2.055-2.555 3.077-6.197.957-3.409 1.964-6.784 2.239-7.5.281-.731-.192-1.303-1.077-1.303-1.014 0-2.084 1.694-3.001 4.75-.834 2.783-1.642 4.129-1.951 3.25-.289-.825-.937-2.85-1.439-4.5-1.331-4.377-3.467-3.711-4.812 1.5-1.168 4.523-1.388 4.42-3.188-1.5-.501-1.65-1.604-3.134-2.451-3.299-1.321-.256-1.239.775.582 7.275M124 158.5v7.5h5.5c6.174 0 7.547-1.709 1.758-2.19-2.615-.217-3.841-.837-4.073-2.06-.266-1.402.379-1.75 3.242-1.75 2.509 0 3.573-.447 3.573-1.5s-1.064-1.5-3.573-1.5c-2.863 0-3.508-.348-3.242-1.75.232-1.223 1.458-1.843 4.073-2.06 5.789-.481 4.416-2.19-1.758-2.19H124zm14 .052v7.553l5.147-.303c6.014-.353 8.184-2.44 6.065-5.833-.853-1.367-.961-2.596-.327-3.728 1.808-3.231-.462-5.241-5.92-5.241H138zm20.2-6.352c-2.787 2.787-.773 6.285 4.421 7.674 1.512.404 2.928 1.273 3.147 1.93.627 1.88-2.656 2.594-5.334 1.161-2.858-1.53-4.261-.666-2.454 1.511 1.613 1.944 8.382 1.997 9.974.079 2.386-2.874.84-5.962-3.704-7.4-2.338-.74-4.25-1.766-4.25-2.281 0-1.697 3.091-2.163 5.566-.839 2.858 1.53 4.261.666 2.454-1.511-1.51-1.819-8.107-2.037-9.82-.324m12.8-.27c0 .512 1.012 1.075 2.25 1.25 2.021.287 2.28.956 2.548 6.57.222 4.661.667 6.25 1.75 6.25 1.12 0 1.452-1.484 1.452-6.5 0-5.833.205-6.5 2-6.5 1.1 0 2-.45 2-1 0-.556-2.667-1-6-1-3.3 0-6 .419-6 .93m14.188 4.986c.527 7.291 1.889 9.084 6.899 9.084 4.774 0 5.913-1.817 5.913-9.434 0-4.281-.346-5.566-1.5-5.566-1.147 0-1.5 1.264-1.5 5.378 0 5.664-1.659 8.35-4.487 7.265-1.119-.429-1.513-2.15-1.513-6.612 0-5.478-.194-6.031-2.12-6.031-1.97 0-2.09.42-1.692 5.916M201 158.5v7.5h4.345c4.921 0 7.283-1.891 8.221-6.581.955-4.772-2.571-8.419-8.139-8.419H201zm15 0c0 6.833.178 7.5 2 7.5s2-.667 2-7.5-.178-7.5-2-7.5-2 .667-2 7.5m-195-4.218c0 3.148 3.577 5.882 9.523 7.281 8.979 2.112 10.299 1.956 9.706-1.145-.271-1.42-.997-2.725-1.611-2.899-.615-.174-4.043-.999-7.618-1.834s-7.288-1.828-8.25-2.208c-1.195-.472-1.75-.216-1.75.805M141 155c0 1.429.667 2 2.333 2 1.284 0 2.603-.269 2.931-.598 1.246-1.245-.575-3.402-2.871-3.402-1.726 0-2.393.557-2.393 2m63 3.5c0 5.668.596 6.322 4.066 4.465 1.306-.699 1.934-2.096 1.934-4.3 0-3.645-1.498-5.665-4.2-5.665-1.515 0-1.8.87-1.8 5.5m23.2-4.3c-1.722 1.722-1.48 7.323.384 8.87 2.29 1.9 4.844-.044 5.234-3.986.489-4.936-2.75-7.752-5.618-4.884m-136.981 1.592c-5.485 2.106-5.16 4.11 1.039 6.412 3.858 1.433 4.742 1.503 4.742.376 0-.761-1.463-1.905-3.25-2.542l-3.25-1.157 3.25-1.392c1.787-.766 3.25-1.864 3.25-2.441 0-1.333-.563-1.261-5.781.744M244 155.2c0 .778 1.238 1.878 2.75 2.445l2.75 1.032-2.75 1.322c-4.773 2.295-3.389 3.983 1.75 2.135 5.201-1.87 5.951-4.413 1.75-5.934a161 161 0 0 1-4.5-1.705c-1.176-.476-1.75-.245-1.75.705m-190.818 5.3c-1.335 2.93-.2 3.282 2.163.671 2.004-2.215 2.1-3.171.316-3.171-.737 0-1.853 1.125-2.479 2.5M141 162c0 1.737.511 2.074 2.75 1.816 1.637-.188 2.75-.923 2.75-1.816s-1.113-1.628-2.75-1.816c-2.239-.258-2.75.079-2.75 1.816m-108.357 6.377c.95 1.992 2.033 3.623 2.407 3.623s1.961-1.008 3.527-2.239l2.847-2.239-3.462-.626c-1.904-.344-4.269-.967-5.255-1.384-1.715-.726-1.717-.602-.064 2.865"/><path fill="gold" fill-opacity=".64" fill-rule="evenodd" d="M42.035 85.934C41.466 86.998 41 88.589 41 89.469s-.632 2.598-1.404 3.816-1.651 4.24-1.953 6.715l-.55 4.5 1.319-5.127c1.793-6.971 2.349-7.671 5.586-7.023 2.942.588 5.348-.771 6.32-3.571 1.396-4.022-6.248-6.647-8.283-2.845m35.941 2.595c-1.134 1.367-1.12 1.767.088 2.532 2.81 1.778 3.993.154 2.082-2.858-.653-1.03-1.101-.963-2.17.326m-64.321 3.3c-2.078 2.296-2.11 4.548-.089 6.226 1.27 1.054 2.223 1.061 5.049.039 2.994-1.082 3.846-1.022 6.061.43 1.418.929 3.069 2.991 3.67 4.582.601 1.592 1.46 2.894 1.908 2.894.449 0 .296-1.013-.341-2.25-1.682-3.269-6.076-7.75-7.6-7.75-.722 0-1.313-.911-1.313-2.025 0-1.253-.977-2.396-2.565-3-3.222-1.225-2.837-1.294-4.78.854M43.333 118.5c0 .825.6 1.5 1.334 1.5.733 0 1.333-.675 1.333-1.5s-.6-1.5-1.333-1.5c-.734 0-1.334.675-1.334 1.5m-11 2c0 .825.6 1.5 1.334 1.5.733 0 1.333-.675 1.333-1.5s-.6-1.5-1.333-1.5c-.734 0-1.334.675-1.334 1.5m-22.276 7.275C10.15 128.946 25 139 25 137.892c0-.556.563-.699 1.25-.319s-.325-.724-2.25-2.454c-4.817-4.327-14.09-9.212-13.943-7.344m52.45 7.214c-.35.566.051.734.941.393 1.732-.665 2.049-1.382.611-1.382-.518 0-1.216.445-1.552.989M47 136c-.901.582-1.025.975-.309.985.655.008 1.469-.435 1.809-.985.767-1.242.421-1.242-1.5 0m14.98 6.524c-.696.838-.987 1.803-.647 2.143.727.726 3.667-1.511 3.667-2.789 0-1.378-1.63-1.029-3.02.646m-39.313.143c-1.54 1.54-.473 4.382 2.154 5.741 1.552.802 5.94 2.109 9.75 2.903 6.718 1.4 6.98 1.38 8.601-.655 2.154-2.706 1.492-3.656-2.55-3.656-3.668 0-13.62-2.701-15.072-4.091-1.128-1.079-1.975-1.151-2.883-.242M103 151.642c0 2.157 4.245 14.358 4.995 14.358.875 0 2.988-6.164 2.999-8.75.015-3.156 1.927-.749 3.017 3.796.666 2.776 1.667 4.895 2.226 4.708.98-.326 4.718-10.958 4.748-13.504.038-3.182-1.908-.739-2.984 3.748-.66 2.748-1.549 4.781-1.977 4.517-.428-.265-1.29-2.514-1.915-4.998-.626-2.484-1.536-4.517-2.024-4.517-.487 0-1.425 2.25-2.085 5-1.082 4.509-2.992 6.892-3.006 3.75-.011-2.645-2.133-8.75-3.041-8.75-.524 0-.953.289-.953.642m22 6.858v7.5h5c2.75 0 5-.45 5-1s-1.8-1-4-1c-3.6 0-4-.25-4-2.5 0-2.199.452-2.516 3.75-2.632l3.75-.131-3.5-.619c-2.634-.465-3.579-1.175-3.82-2.868-.286-2.017.102-2.25 3.75-2.25 2.239 0 4.07-.45 4.07-1s-2.25-1-5-1h-5zm13 0v7.5h3.918c2.155 0 4.63-.273 5.5-.607 1.892-.726 2.147-5.963.332-6.81-1-.466-1-.7 0-1.166 1.588-.741 1.615-3.652.05-5.217-.66-.66-3.135-1.2-5.5-1.2H138zm21.046-6.055c-2.323 2.798-.841 5.802 3.454 7.002 4.74 1.324 5.39 3.894 1.109 4.383-1.591.182-3.226-.211-3.635-.872s-1.305-1.014-1.992-.785c-2.041.68 1.787 3.827 4.655 3.827 8.079 0 8.595-6.774.677-8.891-1.548-.414-2.814-1.396-2.814-2.181 0-1.794 4.513-2.524 5.521-.894.411.666 1.31 1.022 1.997.793.911-.303.787-.879-.455-2.122-2.083-2.082-6.883-2.229-8.517-.26M171 152c0 .55 1.125 1 2.5 1 2.41 0 2.5.233 2.5 6.5 0 3.667.436 6.5 1 6.5s1-2.833 1-6.5c0-6.267.09-6.5 2.5-6.5 1.375 0 2.5-.45 2.5-1 0-.556-2.667-1-6-1s-6 .444-6 1m15 5.3c0 7.11 1.005 8.7 5.5 8.7s5.5-1.59 5.5-8.7c0-8.167-1.814-8.208-2.202-.05-.273 5.726-.498 6.278-2.685 6.587-3.157.447-4.079-1.26-4.098-7.587-.008-2.887-.465-5.25-1.015-5.25-.561 0-1 2.767-1 6.3m15 1.33v7.63l4.689-.528c5.397-.609 7.311-2.552 7.311-7.423 0-4.601-2.964-7.309-8-7.309h-4zm16-.13c0 4.333.422 7.5 1 7.5s1-3.167 1-7.5-.422-7.5-1-7.5-1 3.167-1 7.5m7.557-5.277c-2.187 3.121-1.971 8.363.443 10.777 4.261 4.261 11 1.027 11-5.277 0-4.841-2.426-7.723-6.5-7.723-2.366 0-3.856.67-4.943 2.223M21 153.852c0 2.54 4.356 6.027 8.743 6.999 11.6 2.57 11.27 2.578 9.944-.261-.925-1.981-2.366-2.788-6.532-3.656-2.939-.613-6.877-1.755-8.75-2.538S21 153.369 21 153.852m120 1.648c0 2.86 2.943 3.479 4.964 1.044 1.615-1.946.477-3.544-2.523-3.544-1.937 0-2.441.516-2.441 2.5m63 3c0 4.679.275 5.5 1.845 5.5 2.257 0 5.155-3.033 5.155-5.394 0-3.137-1.998-5.606-4.535-5.606-2.321 0-2.465.321-2.465 5.5m21.942-2.849c-1.59 4.185.098 7.849 3.617 7.849 2.244 0 3.107-.608 3.846-2.71 2.222-6.319-5.098-11.359-7.463-5.139m18.058-.558c0 .556 1.35 1.482 3 2.057s3 1.416 3 1.868-1.35 1.12-3 1.482-3 1.073-3 1.579c0 1.228.297 1.186 5.021-.704 2.234-.894 3.904-2.1 3.711-2.68-.485-1.454-8.732-4.857-8.732-3.602m-154.75 1.491c-3.972 1.738-4.111 2.909-.5 4.216a159 159 0 0 1 4.5 1.705c1.029.417 1.75.261 1.75-.379 0-.598-1.125-1.37-2.5-1.715-2.292-.576-3.58-2.411-1.691-2.411.445 0 1.682-.661 2.75-1.468 2.556-1.934.166-1.905-4.309.052M54 160c-.589 1.1-.713 2-.276 2s1.357-.9 2.044-2c.692-1.108.815-2 .276-2-.536 0-1.455.9-2.044 2m87 1.5c0 2.282.366 2.591 2.75 2.316 1.978-.227 2.75-.878 2.75-2.316s-.772-2.089-2.75-2.316c-2.384-.275-2.75.034-2.75 2.316m-107.49 7.52c1.538 2.974 1.597 2.993 3.93 1.25l2.369-1.77-3.154-1.174c-4.643-1.728-4.855-1.613-3.145 1.694"/></svg>